<?xml version="1.0" encoding="utf-8"?>
<!-- Generator: Adobe Illustrator 24.0.1, SVG Export Plug-In . SVG Version: 6.00 Build 0)  -->
<svg version="1.1" id="Layer_1" xmlns="http://www.w3.org/2000/svg" xmlns:xlink="http://www.w3.org/1999/xlink" x="0px" y="0px"
	 viewBox="0 0 25 25" style="enable-background:new 0 0 25 25;" xml:space="preserve">
<style type="text/css">
	.st0{fill:url(#SVGID_1_);}
	.st1{fill:url(#SVGID_2_);}
	.st2{fill:url(#SVGID_3_);}
	.st3{fill:url(#SVGID_4_);}
</style>
<g>
	<linearGradient id="SVGID_1_" gradientUnits="userSpaceOnUse" x1="0" y1="12.5" x2="25" y2="12.5">
		<stop  offset="0.0343" style="stop-color:#000000"/>
		<stop  offset="0.6036" style="stop-color:#000000"/>
		<stop  offset="1" style="stop-color:#0A0E2F"/>
	</linearGradient>
	<path class="st0" d="M25,21.5c0,1.92-1.58,3.5-3.5,3.5h-18C1.58,25,0,23.42,0,21.5v-18C0,1.58,1.58,0,3.5,0h18
		C23.42,0,25,1.58,25,3.5V21.5z"/>
</g>
<g>
	<radialGradient id="SVGID_2_" cx="12.4961" cy="7.3857" r="6.0593" gradientUnits="userSpaceOnUse">
		<stop  offset="0.168" style="stop-color:#9623C9"/>
		<stop  offset="0.8363" style="stop-color:#4A23C9"/>
	</radialGradient>
	<polygon class="st1" points="7.11,12.49 7.09,5.87 12.5,11.27 17.88,5.89 17.88,12.49 19.38,12.49 19.36,2.3 12.5,9.17 5.63,2.28 
		5.61,12.49 	"/>
	<radialGradient id="SVGID_3_" cx="12.5" cy="17.6011" r="6.0672" gradientUnits="userSpaceOnUse">
		<stop  offset="0.5299" style="stop-color:#9623C9"/>
		<stop  offset="0.8528" style="stop-color:#4A23C9"/>
	</radialGradient>
	<polygon class="st2" points="5.61,12.49 5.61,22.72 12.5,15.82 19.39,22.71 19.38,12.49 17.88,12.49 17.88,19.09 12.5,13.7 
		7.11,19.1 7.11,12.49 	"/>
	<radialGradient id="SVGID_4_" cx="12.4884" cy="12.4843" r="6.0374" gradientUnits="userSpaceOnUse">
		<stop  offset="0" style="stop-color:#E21C1C"/>
		<stop  offset="1" style="stop-color:#721C1C"/>
	</radialGradient>
	<polygon class="st3" points="7.09,5.87 7.11,8.31 11.28,12.49 7.11,16.66 7.11,19.1 12.5,13.7 17.88,19.09 17.88,16.66 
		13.71,12.49 17.88,8.31 17.88,5.89 12.5,11.27 	"/>
</g>
</svg>
